<svg width="77" height="75" viewBox="0 0 77 75" fill="none" xmlns="http://www.w3.org/2000/svg">
<path d="M35.7646 0.751385C39.9353 6.81468 44.4031 12.9038 46.7311 19.9453C46.4005 20.4276 46.4459 21.0054 46.5354 21.5529C46.0896 21.6045 45.6346 21.6257 45.2008 21.4922C44.1377 22.3718 42.9335 23.0967 42.0009 24.1674C41.6173 24.3479 41.2881 24.6148 41.0074 24.9288C40.4267 25.0121 40.0945 25.5566 39.5637 25.7507C40.5328 18.7957 38.9495 11.7861 36.5595 5.27694C36.2545 3.77852 36.0165 2.2604 35.7646 0.751385Z" fill="#0A93DB"/>
<path d="M36.5596 5.27694C38.9497 11.7861 40.5329 18.7957 39.5639 25.7507C38.4113 33.2124 35.1293 40.3189 35.3281 47.9852C34.2451 45.4967 33.1988 42.9775 31.8399 40.6193C30.1141 37.4617 28.0135 34.3224 27.6815 30.6417C27.3463 26.9412 28.875 23.3986 30.6281 20.2318C33.261 15.5654 36.3579 10.8064 36.5596 5.27694Z" fill="#5BD4E9"/>
<path d="M72.193 13.6408C72.4675 12.7324 72.5919 11.7725 72.9588 10.8973C73.5746 17.5096 73.9203 24.2009 73.1652 30.8161C72.3947 37.6529 68.8216 44.2349 63.1376 48.2023C58.7879 51.3385 53.3374 52.344 48.9029 55.3302C44.4153 58.1388 40.918 62.4445 39.0784 67.4021C39.0906 65.3169 39.3105 63.2209 39.72 61.1752C41.1365 56.1143 44.0892 51.5509 47.8442 47.9066C51.0913 44.6413 54.9328 42.0617 58.4269 39.08C66.0599 32.7726 70.9145 23.4106 72.193 13.6408Z" fill="#2E569B"/>
<path d="M3.6785 11.1916C4.06832 11.824 4.06974 12.6339 4.23209 13.3512C4.81741 23.8384 8.73779 34.274 15.6291 42.2526C15.972 41.6506 16.6877 41.7719 17.2321 41.9691C17.3731 41.816 17.5066 41.6552 17.6476 41.5036C17.819 41.5308 17.9888 41.5581 18.1602 41.5885C18.5378 41.0713 18.8806 40.5254 19.0732 39.9127C19.7495 39.5715 20.1515 38.9284 20.5489 38.3142C21.016 37.5574 22.029 37.4391 22.4976 36.6839C22.6295 36.6567 22.7616 36.6292 22.895 36.6019C22.9162 36.508 22.939 36.4153 22.9632 36.323C23.5107 36.6732 24.0158 36.3122 24.4251 35.9346C28.394 40.9515 32.0035 46.3961 34.2768 52.3895C34.0979 53.2964 34.7485 54.1973 34.4499 55.1679C34.2815 55.1118 34.1147 55.0556 33.9494 55.0011C33.869 55.0996 33.7917 55.2012 33.7128 55.3029C33.6461 55.2316 33.5125 55.0875 33.4459 55.0163C33.0531 55.682 32.7104 56.3812 32.2448 57.0045C30.0775 55.9338 28.649 53.7469 26.5758 52.4654C26.7077 52.8795 26.9275 53.2539 27.1868 53.6013C26.9518 53.8166 26.7168 54.032 26.4832 54.2504C26.2876 54.1701 26.092 54.0927 25.8977 54.0154C25.7947 54.0502 25.59 54.1214 25.4885 54.1564L25.4202 54.1792C22.7889 52.7747 19.9727 51.7678 17.2851 50.4833C10.9734 47.5213 6.29304 41.6036 4.48227 34.9108C2.45304 27.1702 3.20071 19.0793 3.6785 11.1916Z" fill="#0A93DB"/>
<path d="M4.23193 13.3512C5.31625 15.7398 7.09981 17.7083 8.8878 19.5904C14.1427 24.9607 19.792 29.9881 24.4251 35.9346C24.0157 36.3122 23.5107 36.6732 22.9632 36.323C22.9389 36.4153 22.9162 36.508 22.895 36.602C22.7615 36.6292 22.6295 36.6567 22.4976 36.6839C22.029 37.4391 21.016 37.5574 20.5489 38.3142C20.1515 38.9284 19.7495 39.5715 19.0732 39.9127C18.8806 40.5254 18.5379 41.0713 18.1602 41.5885C17.9888 41.5582 17.819 41.5309 17.6476 41.5036C17.5066 41.6553 17.3731 41.816 17.2321 41.9691C16.6877 41.772 15.9719 41.6507 15.6291 42.2527C8.73764 34.274 4.81725 23.8383 4.23193 13.3512Z" fill="#1EB6ED"/>
<path d="M67.9509 19.0292C69.5754 17.4096 71.0676 15.6457 72.1929 13.6408C70.9144 23.4106 66.0598 32.7726 58.4269 39.0799C54.9327 42.0616 51.0912 44.6412 47.8441 47.9065C44.0891 51.5509 41.1364 56.1142 39.72 61.1751C40.1127 57.5217 41.238 53.9621 42.6105 50.562C46.1018 42.6288 51.4446 35.6434 57.4003 29.4027C60.8004 25.8266 64.4629 22.5159 67.9509 19.0292Z" fill="#6FA4DE"/>
<path d="M46.5354 21.5529C46.4459 21.0054 46.4005 20.4276 46.731 19.9453C48.0383 23.3652 48.8178 27.0718 48.563 30.7463C48.3007 34.1086 46.4201 37.0008 44.7944 39.8519C41.7688 44.9643 39.638 50.6545 38.948 56.5738C38.7447 57.7431 38.7371 58.9504 38.4095 60.0953C37.8075 55.9611 36.5746 51.9559 35.328 47.9853C35.1292 40.319 38.4112 33.2124 39.5637 25.7508C40.0945 25.5567 40.4267 25.0122 41.0074 24.9289C41.288 24.6148 41.6172 24.348 42.0009 24.1674C42.9335 23.0968 44.1377 22.3718 45.2008 21.4923C45.6347 21.6257 46.0896 21.6044 46.5354 21.5529Z" fill="#098AB9"/>
<path d="M76.1588 33.6567C77.8241 41.27 77.2311 49.8584 72.4326 56.281C68.227 62.1365 61.3115 65.6595 54.2412 66.5407C51.12 66.932 47.8639 66.7833 44.9066 68.0162C42.4648 68.9292 40.4721 70.7553 39.0708 72.924C39.9307 65.3775 46.1214 59.7115 52.7414 56.7556C55.6394 55.4104 58.7666 54.6263 61.6285 53.1963C69.1841 49.5125 75.4171 42.2496 76.1588 33.6567Z" fill="#1B2A5E"/>
<path d="M0.243289 44.3895C-0.240518 40.8891 0.0506384 37.2949 0.648216 33.822C1.29572 41.2835 6.09123 47.8336 12.2577 51.8102C12.5943 52.5822 13.4921 52.943 13.7257 53.7878C13.5332 53.906 13.3315 54.0061 13.1419 54.126C13.2131 54.7175 13.2389 55.4303 12.7081 55.8291C11.9605 56.3857 12.0986 57.414 11.6815 58.1692C6.3187 55.1967 2.29371 50.1373 0.243289 44.3895Z" fill="#4073BA"/>
<path d="M0.243408 44.3895C2.29383 50.1373 6.31881 55.1967 11.6815 58.1692C12.4246 58.5786 13.1511 59.0366 13.9669 59.2945C13.5288 59.71 13.1041 60.1575 12.8841 60.7322C12.7689 60.7505 12.6551 60.7702 12.5414 60.7913C12.3926 61.5586 11.7755 62.088 11.2735 62.6416C5.01147 58.7469 0.724132 51.757 0.243408 44.3895Z" fill="#6FA4DE"/>
<path d="M13.7255 53.7878C13.4919 52.943 12.5941 52.5821 12.2574 51.8101C15.1086 53.5285 18.2372 54.6841 21.3538 55.8169C25.7125 57.4837 29.8771 59.9025 33.0755 63.3406C35.4779 65.9598 37.0278 69.316 37.5312 72.8284C36.1011 70.5278 33.9415 68.6836 31.3633 67.7994C31.3633 67.7509 31.3633 67.6509 31.3633 67.6008C30.3974 66.2964 32.2567 65.0104 32.9695 63.9867C27.0169 61.0399 19.9617 62.2017 13.9666 59.2944C13.1507 59.0365 12.4242 58.5786 11.6812 58.1691C12.0983 57.4139 11.9602 56.3856 12.7078 55.829C13.2387 55.4302 13.2129 54.7174 13.1416 54.1259C13.3312 54.0061 13.533 53.906 13.7255 53.7878Z" fill="#2E569B"/>
<path d="M26.5757 52.4653C28.6488 53.7468 30.0774 55.9337 32.2447 57.0045C32.7103 56.3811 33.053 55.6819 33.4458 55.0162C33.5124 55.0874 33.646 55.2315 33.7127 55.3028C33.7916 55.2011 33.8689 55.0996 33.9493 55.001C34.1146 55.0556 34.2814 55.1117 34.4498 55.1678C34.7485 54.1972 34.0978 53.2964 34.2767 52.3894C36.2393 57.1469 37.4479 62.2851 37.5981 67.4385C35.4552 61.6452 30.9084 57.009 25.4883 54.1563C25.5899 54.1213 25.7946 54.0501 25.8976 54.0153C26.0918 54.0926 26.2875 54.17 26.483 54.2504C26.7167 54.0319 26.9517 53.8166 27.1866 53.6012C26.9274 53.2539 26.7076 52.8793 26.5757 52.4653Z" fill="#098AB9"/>
<path d="M13.9668 59.2945C19.962 62.2018 27.0172 61.04 32.9697 63.9868C32.2568 65.0104 30.3976 66.2965 31.3635 67.6009C31.3635 67.6509 31.3635 67.7509 31.3635 67.7995C28.7521 66.9214 25.9768 66.9063 23.262 66.6635C19.0187 66.3012 14.8799 64.9029 11.2734 62.6417C11.7755 62.0881 12.3926 61.5588 12.5413 60.7915C12.6551 60.7703 12.7688 60.7506 12.884 60.7324C13.104 60.1575 13.5286 59.71 13.9668 59.2945Z" fill="#4073BA"/>
<path d="M44.1181 72.0777C45.4223 71.5182 46.211 73.6232 44.9659 74.1569C43.6965 74.715 42.8578 72.5646 44.1181 72.0777Z" fill="#6FA4DE"/>
</svg>
